<?xml version="1.0" encoding="UTF-8"?>
<svg id="Camada_2" data-name="Camada 2" xmlns="http://www.w3.org/2000/svg" viewBox="0 0 715.79 800.01">
  <defs>
    <style>
      .cls-1 {
        fill: #fff;
        fill-rule: evenodd;
        stroke-width: 0px;
      }
    </style>
  </defs>
  <g id="Camada_1-2" data-name="Camada 1">
    <g id="Page-1">
      <g id="Dribbble-Light-Preview">
        <g id="icons">
          <path id="home-_1393_" data-name="home-[#1393]" class="cls-1" d="m626.32,682.62c0,23.24-20.04,33.18-44.74,33.18h-44.74c-24.69,0-44.74-9.94-44.74-33.18v-42.11c0-46.53-40.04-93.14-89.47-93.14h-89.47c-49.43,0-89.47,46.61-89.47,93.14v42.11c0,23.24-20.04,33.18-44.74,33.18h-44.74c-24.69,0-44.74-9.94-44.74-33.18v-339.5c0-5.6,2.37-10.95,6.53-14.91l229.81-216.25c17.49-16.46,45.81-16.46,63.26,0l230.71,217.09c4.16,3.96,6.53,9.31,6.53,14.86v338.7Zm89.47-361.56c0-11.16-4.7-21.81-13.02-29.73L420.97,24.8c-34.9-32.97-91.58-33.1-126.61-.25L13.15,288.34c-8.41,7.92-13.15,18.61-13.15,29.81v406.57c0,46.53,40.04,75.28,89.47,75.28h134.21c49.43,0,89.47-28.76,89.47-75.28v-42.11c0-23.24,20.04-42.11,44.74-42.11s44.74,18.86,44.74,42.11v42.11c0,46.53,40.04,75.28,89.47,75.28h134.21c49.43,0,89.47-28.76,89.47-75.28v-403.66Z"/>
        </g>
      </g>
    </g>
  </g>
</svg>