<?xml version="1.0" encoding="UTF-8"?>
<svg id="Camada_2" data-name="Camada 2" xmlns="http://www.w3.org/2000/svg" viewBox="0 0 600 760">
  <defs>
    <style>
      .cls-1 {
        fill: #fff;
        fill-rule: evenodd;
        stroke-width: 0px;
      }
    </style>
  </defs>
  <g id="Camada_1-2" data-name="Camada 1">
    <g>
      <path class="cls-1" d="m300,440c77.32,0,140-62.68,140-140s-62.68-140-140-140-140,62.68-140,140,62.68,140,140,140Zm0-200c33.14,0,60,26.86,60,60s-26.86,60-60,60-60-26.86-60-60,26.86-60,60-60Z"/>
      <path class="cls-1" d="m0,304.93c0,169.7,175.27,455.07,300,455.07s300-285.38,300-455.07S465.86,0,300,0,0,136.69,0,304.93Zm520,0c0,131.18-149.8,375.07-220,375.07S80,436.11,80,304.93c0-124.39,98.67-224.93,220-224.93s220,100.54,220,224.93Z"/>
    </g>
  </g>
</svg>