<?xml version="1.0" encoding="UTF-8"?>
<svg id="Camada_2" data-name="Camada 2" xmlns="http://www.w3.org/2000/svg" viewBox="0 0 2257.41 2112.84">
  <defs>
    <style>
      .cls-1, .cls-2 {
        fill: #fff;
        stroke-width: 0px;
      }

      .cls-2 {
        fill-rule: evenodd;
      }
    </style>
  </defs>
  <g id="Camada_1-2" data-name="Camada 1">
    <g>
      <g>
        <path class="cls-1" d="m306.61,749.67c87.37,0,158.15-70.84,158.15-158.15s-70.78-158.18-158.15-158.18-158.18,70.78-158.18,158.18c0,87.31,70.78,158.15,158.18,158.15Z"/>
        <path class="cls-1" d="m1086.63,1004.41c-6.27-8.6-16.35-13.75-26.99-13.75-7.07,0-13.81,2.22-19.55,6.36l-236.71,171.81c-8.81-4.02-18.48-6.41-28.8-6.41h-128.67l-31.23-177.78c-17.15-89.65-53.13-160.05-129.77-160.05H160.01C83.37,824.59,0,907.97,0,984.64v531.6c0,38.32,31.04,69.4,69.36,69.4h48.43l26.37,453.37c0,40.78,33.09,73.83,73.86,73.83h147.69c40.77,0,73.83-33.05,73.83-73.83l34.65-898.02h1.74l19.84,87.6c6.57,41.78,42.52,72.59,84.8,72.59h194.02c38.31,0,69.36-31.05,69.36-69.37,0-3.22-.54-6.3-.95-9.4l236.24-171.46c14.84-10.79,18.18-31.66,7.39-46.54Zm-739.69,128.85l-48.26,56.92-42.58-56.92v-252.7h90.84v252.7Z"/>
        <path class="cls-1" d="m807.38,1065.53h-90.83V488h366.89c-5.23,29.58-8.25,59.91-8.89,90.83h-267.17v486.7Z"/>
        <path class="cls-1" d="m1927.6,1122.1v415.49H716.55v-200.08h90.83v109.25h1029.39v-288.81c31.46-9.48,61.82-21.51,90.83-35.85Z"/>
        <path class="cls-1" d="m1173.91,1772.29c0-70.78-57.36-128.11-128.11-128.11s-128.14,57.33-128.14,128.11,57.36,128.11,128.14,128.11,128.11-57.39,128.11-128.11Z"/>
        <path class="cls-1" d="m1045.8,1969.03c-91.33,0-168.91,59.93-198.72,143.81h397.44c-29.8-83.88-107.39-143.81-198.72-143.81Z"/>
        <path class="cls-1" d="m1726.45,1772.29c0-70.78-57.36-128.11-128.11-128.11s-128.14,57.33-128.14,128.11,57.36,128.11,128.14,128.11,128.11-57.39,128.11-128.11Z"/>
        <path class="cls-1" d="m1598.34,1969.03c-91.33,0-168.91,59.93-198.72,143.81h397.44c-29.8-83.88-107.38-143.81-198.72-143.81Z"/>
      </g>
      <g>
        <path class="cls-1" d="m1665.91,100c66.4,0,130.75,12.98,191.28,38.58,58.52,24.75,111.09,60.2,156.26,105.37s80.62,97.74,105.37,156.26c25.6,60.53,38.58,124.89,38.58,191.28s-12.98,130.75-38.58,191.28c-24.75,58.52-60.2,111.09-105.37,156.26-45.17,45.17-97.74,80.62-156.26,105.37-60.53,25.6-124.89,38.58-191.28,38.58s-130.75-12.98-191.28-38.58c-58.52-24.75-111.09-60.2-156.26-105.37s-80.62-97.74-105.37-156.26c-25.6-60.53-38.58-124.89-38.58-191.28s12.98-130.75,38.58-191.28c24.75-58.51,60.2-111.09,105.37-156.26,45.17-45.17,97.74-80.62,156.26-105.37,60.53-25.6,124.89-38.58,191.28-38.58m0-100c-326.68,0-591.5,264.82-591.5,591.5s264.82,591.5,591.5,591.5,591.5-264.83,591.5-591.5S1992.58,0,1665.91,0h0Z"/>
        <path class="cls-2" d="m1665.91,310.54c24.5,0,44.36,19.86,44.36,44.36v218.22l134.88,134.89c17.32,17.32,17.32,45.41,0,62.73-17.32,17.32-45.41,17.32-62.73,0l-147.87-147.87c-8.32-8.32-13-19.6-13-31.37v-236.6c0-24.5,19.86-44.36,44.36-44.36Z"/>
      </g>
    </g>
  </g>
</svg>