<?xml version="1.0" encoding="UTF-8"?>
<svg id="Camada_2" data-name="Camada 2" xmlns="http://www.w3.org/2000/svg" viewBox="0 0 768.75 768.75">
  <defs>
    <style>
      .cls-1 {
        fill: #fff;
        stroke-width: 0px;
      }

      .cls-2 {
        fill: none;
        stroke: #fff;
        stroke-linecap: round;
        stroke-linejoin: round;
        stroke-width: 60px;
      }
    </style>
  </defs>
  <g id="Camada_1-2" data-name="Camada 1">
    <g id="Layer_2" data-name="Layer 2">
      <g id="E421_Back_buttons_multimedia_play_stop" data-name="E421 Back buttons multimedia play stop">
        <path class="cls-1" d="m384.38,60c43.82,0,86.29,8.57,126.24,25.47,38.62,16.33,73.32,39.73,103.12,69.54,29.81,29.81,53.21,64.51,69.54,103.12,16.9,39.95,25.47,82.43,25.47,126.24s-8.57,86.29-25.47,126.24c-16.33,38.62-39.73,73.32-69.54,103.12-29.81,29.81-64.51,53.21-103.12,69.54-39.95,16.9-82.43,25.47-126.24,25.47s-86.29-8.57-126.24-25.47c-38.62-16.33-73.32-39.73-103.12-69.54-29.81-29.81-53.21-64.51-69.54-103.12-16.9-39.95-25.47-82.43-25.47-126.24s8.57-86.29,25.47-126.24c16.33-38.62,39.73-73.32,69.54-103.12,29.81-29.81,64.51-53.21,103.12-69.54,39.95-16.9,82.43-25.47,126.24-25.47m0-60C172.09,0,0,172.09,0,384.38s172.09,384.38,384.38,384.38,384.38-172.09,384.38-384.38S596.66,0,384.38,0h0Z"/>
        <line class="cls-2" x1="534.78" y1="384.37" x2="250.67" y2="384.37"/>
        <polyline class="cls-2" points="334.23 300.81 250.69 384.37 334.23 467.94"/>
      </g>
    </g>
  </g>
</svg>