<?xml version="1.0" encoding="UTF-8"?>
<svg id="Camada_2" data-name="Camada 2" xmlns="http://www.w3.org/2000/svg" viewBox="0 0 605.06 676.13">
  <defs>
    <style>
      .cls-1 {
        fill: #fff;
      }

      .cls-1, .cls-2 {
        stroke-width: 0px;
      }

      .cls-2 {
        fill: #1d1d1b;
      }
    </style>
  </defs>
  <g id="Camada_3" data-name="Camada 3">
    <g>
      <polygon class="cls-1" points="0 272.84 83.76 252.72 83.76 342.48 0 363.81 31.41 310.28 0 272.84"/>
      <polygon class="cls-1" points="605.06 272.84 521.29 252.72 521.29 342.48 605.06 363.81 573.65 310.28 605.06 272.84"/>
      <path class="cls-1" d="m568.96,458.05c.32,2.3.31,4.51.03,6.63-9.37,19.39-41.08,77.55-106.35,130.94-8.57,7.02-17.18,13.46-25.71,19.37-33.65,23.32-66.02,38.39-89.98,47.62-23.96,9.23-39.51,12.63-39.51,12.63-1.4.47-2.85.75-4.3.85-.18.02-.35.03-.53.04h-.17c-.18,0-.35-.02-.53-.04-1.45-.1-2.9-.38-4.3-.85,0,0-15.55-3.4-39.51-12.63-23.96-9.23-56.34-24.3-89.98-47.62-8.53-5.91-17.14-12.35-25.71-19.37-65.27-53.39-96.98-111.55-106.35-130.94-.28-2.12-.29-4.33.03-6.63.03-.25.07-.51.11-.77,1.59-9.53,12-23.82,22.94-50.29,10.94-26.48,15.18-85.95,16.41-113.12,1.24-27.18-1.85-77.47-5.03-104.91-3.17-27.45-10.76-43.95-16.94-59.39-3.25-8.12-10.67-16.53-16.97-22.68-5.16-5.04-4.75-13.44.91-17.9,3.14-2.47,10.44-9.38,18.34-17.37,7.89-7.98,16.38-17.04,21.9-23.84,6.48-7.98,11.28-19.52,14.14-27.69,1.93-5.51,7.54-8.82,13.29-7.8,5.15.91,12.55,2.13,22.86,3.64,25.33,3.7,50.65,2.91,86.47,1.5,31.63-1.26,71.02-13.88,79.82-16.82,1.22-.41,2.48-.61,3.77-.61h8.83c1.29,0,2.55.2,3.77.61,8.8,2.94,48.19,15.56,79.82,16.82,35.82,1.41,61.14,2.2,86.47-1.5,10.31-1.51,17.71-2.73,22.86-3.64,5.75-1.02,11.36,2.29,13.29,7.8,2.86,8.17,7.66,19.71,14.14,27.69,5.52,6.8,14.01,15.86,21.9,23.84,7.9,7.99,15.2,14.9,18.34,17.37,5.66,4.46,6.07,12.86.91,17.9-6.3,6.15-13.72,14.56-16.97,22.68-6.18,15.44-13.77,31.94-16.94,59.39-3.18,27.44-6.27,77.73-5.03,104.91,1.23,27.17,5.47,86.64,16.41,113.12,10.94,26.47,21.35,40.76,22.94,50.29.04.26.08.52.11.77Z"/>
      <path class="cls-2" d="m530.61,459.06c.27,2.12.27,4.15.03,6.11-8.02,17.86-35.17,71.44-91.04,120.63-7.34,6.47-14.71,12.4-22.01,17.84-28.81,21.48-56.52,35.37-77.03,43.87-20.51,8.5-33.82,11.64-33.82,11.64-1.2.43-2.44.69-3.68.78-.15.02-.3.03-.45.04h-.15c-.15,0-.3-.02-.45-.04-1.24-.09-2.48-.35-3.68-.78,0,0-13.31-3.13-33.82-11.64-20.51-8.5-48.23-22.39-77.03-43.87-7.3-5.44-14.67-11.38-22.01-17.84-55.87-49.19-83.02-102.76-91.04-120.63-.24-1.95-.25-3.99.03-6.11.03-.23.06-.47.09-.71,1.36-8.78,10.27-21.94,19.64-46.33,9.37-24.39,12.99-79.18,14.05-104.21,1.06-25.04-1.58-71.37-4.31-96.65-2.71-25.29-9.21-40.49-14.5-54.71-2.78-7.48-9.13-15.23-14.53-20.89-4.42-4.64-4.07-12.38.78-16.49,2.69-2.28,8.94-8.64,15.7-16,6.75-7.35,14.02-15.7,18.75-21.96,5.55-7.35,9.66-17.98,12.1-25.51,1.65-5.08,6.45-8.13,11.38-7.19,4.41.84,10.74,1.96,19.57,3.35,21.68,3.41,43.36,2.68,74.02,1.38,27.08-1.16,60.8-12.79,68.33-15.5,1.04-.38,2.12-.56,3.23-.56h7.56c1.1,0,2.18.18,3.23.56,7.53,2.71,41.25,14.33,68.33,15.5,30.66,1.3,52.34,2.03,74.02-1.38,8.83-1.39,15.16-2.52,19.57-3.35,4.92-.94,9.72,2.11,11.38,7.19,2.45,7.53,6.56,18.16,12.1,25.51,4.73,6.26,11.99,14.61,18.75,21.96,6.76,7.36,13.01,13.73,15.7,16,4.85,4.11,5.2,11.85.78,16.49-5.39,5.67-11.74,13.41-14.53,20.89-5.29,14.22-11.79,29.42-14.5,54.71-2.72,25.28-5.37,71.61-4.31,96.65,1.05,25.03,4.68,79.82,14.05,104.21,9.37,24.39,18.28,37.55,19.64,46.33.03.24.07.48.09.71Z"/>
      <rect class="cls-1" x="288.06" y="320.01" width="25.41" height="349.41"/>
      <path class="cls-1" d="m561.29,273.9l-22.58,80.94h0c-151.63-39.16-310.73-39.16-462.36,0h0s-22.58-80.94-22.58-80.94l95.7-16.61c104.6-18.15,211.55-18.15,316.15,0l95.69,16.61Z"/>
      <g>
        <path class="cls-2" d="m112.1,319.01c-.09.13-.14.19-.23.32-2.24.36-3.35.54-5.59.91-.91.15-2.5.46-4.76.95-.67-.57-1.83-1.87-3.5-3.91-3.06-3.73-4.59-5.6-7.69-9.31-.64,1.39-.96,2.08-1.59,3.47-2,4.4-3.77,8.81-5.3,13.23-.85.11-1.69.26-2.52.43-1.69.34-2.92.62-3.69.84-.13-.09-.2-.13-.33-.21-.14-.69-.21-1.03-.36-1.72.08-.14.13-.21.21-.35,1.47-.42,2.34-.75,2.61-1.01.48-.45,1.41-2.17,2.83-5.14,1.05-2.2,1.58-3.29,2.65-5.49.11-.21,1.19-2.44,3.28-6.69-1.12-1.28-1.68-1.92-2.81-3.2-1.8-2.01-2.7-3.02-4.52-5.02-3.22-3.54-5.55-5.55-6.98-6.02-.48-.16-.96-.2-1.42-.1-.37.08-.95.22-1.72.44-.17-.08-.25-.12-.42-.19-.21-.55-.31-.83-.52-1.38.07-.18.1-.27.17-.46,2.53-1.07,5.79-2.48,9.79-4.22,1.33.5,2.81,1.59,4.44,3.27.78.82,2.03,2.24,3.73,4.26,1.7,2.02,2.55,3.04,4.24,5.07,1.06-2.33,1.6-3.49,2.68-5.81,2.22-4.81,3.67-8.06,4.29-9.75.78-.07,1.55-.17,2.31-.3,1.26-.22,2.54-.49,3.82-.79.13.09.2.13.33.22.12.71.19,1.07.31,1.79-.09.13-.14.19-.24.32-1.29.24-2.13.53-2.51.86-.38.33-1.05,1.33-2.01,3.01-.96,1.68-2.19,4-3.69,6.95-.84,1.64-1.84,3.68-3.02,6.12,1.24,1.48,3,3.57,5.26,6.26,1.85,2.12,2.78,3.18,4.61,5.31,2.54,2.93,4.08,4.57,4.66,4.9.58.33,1.43.4,2.56.21.13.09.19.13.32.22.12.69.18,1.04.3,1.73Z"/>
        <path class="cls-2" d="m151.02,276.14c-.1.12-.15.19-.25.31-1.31.31-2.13.57-2.47.79-.35.22-.68.69-1.01,1.4-.35.77-.93,2.59-1.71,5.45-.54,1.95-.81,2.93-1.35,4.88-1,3.76-1.49,5.64-2.47,9.4-2.1,8.08-3.42,13.75-4.05,17.02-1.67.25-2.5.38-4.17.64-5.8-9.43-11.66-18.8-17.59-28.15-1.89-2.92-3.17-4.56-3.78-4.94-.48-.3-1.66-.32-3.55-.04-.13-.1-.2-.15-.33-.25-.12-.71-.18-1.07-.31-1.79.1-.14.16-.21.26-.35,2-.23,4.5-.6,7.52-1.1,3.78-.62,7.2-1.23,10.28-1.82.13.1.2.15.33.25.11.73.17,1.09.28,1.82-.08.12-.13.19-.21.31-1.9.32-3.13.68-3.68,1.08-.29.23-.4.57-.33,1,.08.47.96,2.09,2.65,4.86.73,1.21,1.1,1.81,1.83,3.02,3.9,6.34,5.84,9.52,9.66,15.89,1.54-6.42,2.33-9.64,3.94-16.06.16-.62.51-2.16,1.05-4.62.79-3.56,1.15-5.61,1.07-6.18-.09-.6-.34-.93-.78-1-.43-.07-1.71.01-3.84.25-.13-.09-.19-.14-.32-.23-.11-.74-.16-1.11-.27-1.85.11-.13.16-.19.27-.32,2.15-.2,4.38-.47,6.69-.79,1.65-.23,3.65-.56,6.02-.99.14.1.21.15.35.26.1.73.15,1.1.25,1.83Z"/>
        <path class="cls-2" d="m176.48,309.75c-.09.12-.13.18-.22.3-1.85.1-4.69.38-8.52.86-3.81.47-6.63.89-8.44,1.24-.11-.1-.17-.14-.28-.24-.1-.73-.14-1.1-.24-1.83.1-.12.14-.18.24-.31,1.86-.35,2.92-.58,3.19-.69.51-.21.78-.59.81-1.13.07-1.33-.17-4.17-.72-8.5-.73-5.77-1.1-8.65-1.84-14.42-.55-4.32-1.04-7.13-1.44-8.4-.16-.51-.53-.81-1.09-.89-.29-.04-1.41.01-3.35.16-.13-.09-.19-.14-.32-.23-.1-.74-.15-1.11-.24-1.85.1-.11.15-.17.25-.28,1.83-.13,4.75-.46,8.77-.95,4-.5,6.9-.89,8.71-1.21.13.08.19.13.31.21.09.74.13,1.11.22,1.86-.1.12-.15.18-.25.31-1.92.33-3.01.56-3.29.66-.53.21-.81.59-.84,1.13-.08,1.33.13,4.17.65,8.5.69,5.77,1.04,8.66,1.74,14.43.52,4.33.98,7.14,1.37,8.41.16.51.51.82,1.06.9.29.04,1.37,0,3.26-.11.12.1.18.14.31.24.08.73.13,1.1.21,1.83Z"/>
        <path class="cls-2" d="m250.24,282.11c.31,6.2-1.51,11.44-5.37,15.74-1.89,2.1-4.23,3.78-6.99,5.06-2.97,1.37-6.47,2.16-10.53,2.37-3.9.21-5.85.32-9.75.57-2.65.17-4.84.41-6.55.7-.12-.1-.18-.15-.3-.25-.03-.31-.04-.46-.07-.77.04-.14.07-.2.11-.34,1.29-.97,1.98-1.57,2.07-1.8.14-.34.14-1.56,0-3.67-.17-2.46-.26-3.68-.43-6.14-.46-5.55-.69-8.33-1.15-13.88-.36-4.34-.72-7.17-1.07-8.46-.14-.52-.49-.83-1.05-.93-.29-.05-1.41-.05-3.35.01-.12-.1-.19-.15-.31-.25-.06-.74-.1-1.12-.16-1.86.11-.11.16-.16.26-.27,2.02-.07,3.95-.17,5.77-.32,4.43-.36,8.42-.72,11.97-1.09,1.76-.18,3.54-.33,5.33-.45,4.95-.33,8.79-.02,11.49.91,2.96,1.02,5.32,2.77,7.08,5.23,1.8,2.52,2.79,5.83,2.99,9.89Zm-8.57,1.78c-.29-5.07-1.77-8.89-4.47-11.46-1.41-1.35-3.13-2.25-5.16-2.71-1.93-.43-4.6-.53-8-.28-1.77.13-4.68.29-5.04.73-.5.61.25,7.02.84,14.87.39,4.79.58,7.18.97,11.97.22,2.67.43,4.43.62,5.3,1.64.13,3.31.14,5.01.02,3.67-.26,6.54-.98,8.59-2.18,2.22-1.29,3.93-3.36,5.12-6.2,1.23-2.93,1.74-6.28,1.52-10.05Z"/>
        <path class="cls-2" d="m285.93,293.31c-.36,2.68-.5,5.71-.44,9.08-.11.11-.16.17-.27.28-8.04.09-12.06.17-20.1.41-3.35.13-5.72.28-7.09.45-.12-.1-.17-.16-.29-.26-.01-.31-.02-.46-.03-.77.05-.13.08-.2.13-.34,1.33-.92,2.05-1.49,2.14-1.71.15-.35.2-1.58.15-3.66-.07-2.46-.1-3.69-.17-6.15-.23-5.57-.35-8.35-.58-13.92-.18-4.36-.43-7.19-.72-8.49-.12-.52-.45-.85-1.01-.98-.29-.06-1.4-.11-3.35-.13-.12-.1-.18-.16-.3-.26-.03-.75-.05-1.12-.09-1.87.11-.1.17-.16.28-.26,1.93.02,4.9-.05,8.92-.21,3.58-.14,10.39-.44,20.43-.76.13.09.19.13.32.21-.12,1.22-.19,1.83-.31,3.06-.1.97-.16,1.8-.21,2.48-.06,1.02-.09,1.54-.15,2.56-.11.12-.17.18-.28.31-.66.01-.99.02-1.65.04-.12-.11-.17-.16-.29-.27-.08-2.49-.26-3.91-.55-4.25-.22-.25-1.24-.43-3.08-.53-1.84-.1-3.45-.13-4.84-.09-1.65.05-4.63-.04-5.01.35-.49.5-.16,4.6-.04,8,.08,2.27.12,3.41.2,5.69,1.49.04,2.69.05,3.61.02,1.48-.06,2.21-.08,3.69-.14,1.73-.07,2.7-.23,2.92-.49.29-.34.46-1.58.5-3.72.11-.11.17-.17.28-.28.7-.02,1.05-.03,1.75-.04.12.11.17.16.29.27-.03,2.05-.02,3.93.02,5.63.04,1.85.13,3.87.25,6.07-.11.1-.17.15-.28.25-.75.02-1.12.03-1.87.05-.11-.11-.17-.16-.29-.27-.05-2.11-.23-3.35-.54-3.74-.31-.38-1.23-.63-2.74-.71-1.14-.06-2.36-.07-3.66-.03-1.37.04-2.64.13-3.82.26.12,3.35.17,5.03.29,8.38.08,2.4.21,4.72.38,6.97,1.51-.05,2.26-.08,3.77-.12,5.4-.17,8.7-.45,9.91-.9.2-.08.35-.18.44-.31.18-.26.34-.81.49-1.66.24-1.37.36-2.05.59-3.42.11-.12.16-.19.27-.31.68-.01,1.02-.02,1.7-.03.12.11.19.16.31.27Z"/>
        <path class="cls-2" d="m323.76,292.87c-.44,3.33-.78,6.47-1.02,9.44-.11.1-.17.15-.28.24-7.57-.25-13.33-.32-17.25-.32-2.88,0-7.97.09-15.29.35-.11-.1-.17-.15-.28-.24-.01-.77-.02-1.15-.03-1.92,1.34-1.73,3.39-4.59,6.17-8.57,1.61-2.3,2.41-3.45,4.04-5.75,2.08-3.04,3.12-4.55,5.23-7.58,1.75-2.5,4.36-6.35,7.9-11.56-2.86,0-4.29,0-7.16.02-5.53.03-8.71.19-9.55.44-.49.13-.83.5-1.01,1.11-.07.24-.23,1.09-.46,2.56-.09.55-.13.83-.21,1.38-.12.11-.19.17-.31.28-.69,0-1.04.01-1.73.02-.11-.13-.17-.2-.29-.33.11-1.94.15-3.69.13-5.25,0-.49-.04-1.59-.1-3.3.11-.11.17-.17.28-.28,2.59.08,8.37.05,17.33.07,2.11,0,6.72-.04,13.81-.06.11.11.17.17.28.28,0,.66-.01.99-.02,1.65-.95,1.25-1.43,1.88-2.38,3.13-2.49,3.23-4.61,6.09-6.38,8.57-3.38,4.75-5.05,7.13-8.36,11.9-.93,1.34-3.11,4.62-6.46,9.86.98.03,2.47.04,4.46.04,9.37-.02,14.37-.2,14.98-.71.34-.27.78-1.68,1.33-4.22.12-.53.22-.97.32-1.32.12-.11.19-.16.31-.27.67,0,1,.01,1.67.02.12.12.18.18.3.31Z"/>
        <path class="cls-2" d="m358.58,294.25c-.53,2.65-.86,5.67-1.01,9.03-.12.1-.17.16-.29.26-8.03-.42-12.05-.59-20.09-.87-3.35-.09-5.72-.08-7.11,0-.11-.11-.16-.17-.27-.28,0-.31,0-.46.02-.77.06-.13.09-.2.15-.33,1.38-.83,2.14-1.36,2.25-1.58.18-.34.3-1.56.38-3.65.09-2.46.13-3.69.22-6.15.12-5.57.18-8.36.31-13.93.1-4.36.03-7.2-.18-8.52-.09-.53-.4-.88-.95-1.04-.28-.08-1.39-.19-3.33-.34-.11-.11-.17-.17-.28-.28l.03-1.87c.12-.1.17-.14.29-.24,1.92.14,4.89.26,8.91.36,3.58.09,10.4.21,20.44.54.12.09.18.14.3.23-.2,1.21-.3,1.82-.5,3.03-.16.97-.28,1.79-.36,2.46-.12,1.02-.19,1.53-.31,2.55-.12.12-.18.17-.3.29-.66-.03-.99-.04-1.65-.07-.11-.11-.16-.17-.27-.29.08-2.49-.01-3.92-.28-4.27-.2-.26-1.21-.51-3.04-.72-1.83-.22-3.44-.35-4.82-.39-1.65-.06-4.62-.33-5.02.03-.52.47-.45,4.58-.55,7.98-.07,2.27-.1,3.41-.16,5.69,1.48.14,2.68.22,3.6.25,1.48.04,2.21.06,3.69.1,1.73.04,2.71-.06,2.94-.31.31-.32.56-1.55.73-3.68.12-.11.18-.16.29-.26.7.03,1.05.04,1.75.07.11.11.16.17.27.29-.16,2.05-.27,3.92-.34,5.62-.07,1.85-.12,3.87-.13,6.07-.12.09-.17.14-.29.24-.75-.03-1.12-.04-1.87-.07-.11-.11-.16-.17-.27-.28.08-2.11-.02-3.36-.31-3.77-.28-.4-1.19-.7-2.69-.88-1.14-.13-2.35-.22-3.65-.26-1.37-.04-2.64-.04-3.83.02-.1,3.35-.15,5.03-.24,8.38-.07,2.4-.09,4.73-.06,6.98,1.51.04,2.26.07,3.77.12,5.4.17,8.71.11,9.95-.27.21-.06.36-.16.46-.28.2-.25.4-.79.6-1.63.32-1.35.49-2.03.81-3.38.12-.12.18-.17.29-.29.68.03,1.02.04,1.7.07.12.12.18.17.29.29Z"/>
        <path class="cls-2" d="m414.82,307.25c-.12.1-.18.15-.3.25-1.81-.28-4.63-.6-8.48-.93-3.93-.34-6.77-.51-8.51-.54-.09-.11-.14-.16-.23-.27.06-.74.09-1.12.15-1.86.12-.1.18-.15.3-.25,1.89.04,2.97.04,3.25-.01.55-.1.89-.41,1.03-.93.34-1.29.7-4.11,1.07-8.46.62-7.4.93-11.11,1.54-18.51-2.94,4.79-4.4,7.2-7.29,12.01-.41.67-1.83,3.13-4.22,7.39-2.37,4.23-3.54,6.35-5.87,10.59-.74-.05-1.11-.08-1.85-.13-.8-2.33-1.91-5.28-3.33-8.84-1.34-3.36-2.02-5.04-3.39-8.39-2.56-6.16-3.87-9.24-6.51-15.38-.42,7.62-.63,11.42-1.06,19.04-.24,4.35-.27,7.2-.11,8.53.06.53.36.89.88,1.07.27.09,1.35.24,3.22.46.1.12.16.17.26.29-.04.75-.07,1.12-.11,1.87-.12.09-.18.14-.29.23-2.11-.24-4.08-.4-5.9-.5-2.12-.11-4.25-.17-6.39-.16-.11-.1-.16-.16-.26-.26.04-.75.05-1.12.09-1.87.12-.1.17-.16.29-.26,1.89-.02,2.97-.05,3.25-.11.54-.12.87-.44.99-.97.3-1.3.58-4.13.81-8.49.31-5.81.46-8.71.76-14.52.23-4.35.25-7.2.08-8.52-.07-.53-.37-.89-.92-1.07-.28-.09-1.39-.24-3.32-.44-.11-.12-.16-.17-.27-.29.04-.75.05-1.12.09-1.87.12-.09.18-.14.3-.23,1.98.21,4.48.39,7.51.55,2.32.13,4.35.19,6.09.19.54,1.43,1.32,3.44,2.32,6.03.63,1.56.95,2.34,1.58,3.9,3.14,7.52,4.67,11.29,7.69,18.84,1.95-3.28,2.93-4.91,4.9-8.18,3.11-5.4,4.68-8.09,7.85-13.47.93-1.6,1.85-3.32,2.77-5.18,2.14.29,3.58.47,4.32.53,3.73.32,6.58.54,8.57.61.1.11.16.16.26.27-.07.76-.11,1.13-.18,1.89-.12.09-.18.13-.31.22-1.95-.07-3.06-.08-3.35-.04-.56.1-.91.41-1.06.92-.36,1.29-.75,4.11-1.14,8.45-.52,5.79-.79,8.69-1.31,14.48-.39,4.34-.52,7.19-.41,8.52.05.54.33.9.85,1.1.27.1,1.34.29,3.21.58.1.12.15.18.25.3-.07.73-.1,1.1-.17,1.83Z"/>
        <path class="cls-2" d="m452.4,299.06c-.58,4.56-3.27,7.8-8.04,9.77-2.35.97-5.26,1.25-8.72.86-1.1-.12-2.01-.24-2.72-.33-2.63-.35-3.94-.52-6.57-.85-2.35-.25-4.17-.38-5.47-.4-.1-.12-.15-.18-.25-.3.03-.31.05-.46.08-.77.07-.13.1-.19.17-.31,1.45-.72,2.24-1.18,2.37-1.39.2-.31.42-1.51.68-3.6.28-2.45.43-3.67.71-6.11.57-5.54.85-8.32,1.42-13.86.44-4.34.6-7.18.5-8.51-.04-.54-.33-.91-.86-1.11-.28-.1-1.38-.31-3.3-.61-.1-.12-.15-.18-.26-.3.07-.74.11-1.12.18-1.86.12-.09.18-.13.31-.22,1.68.28,4.58.62,8.7,1.05,2.62.28,4.99.49,7.1.64,1.68.11,3.1.24,4.25.37,5.29.61,8.62,2.2,9.98,4.71.72,1.33.97,2.78.78,4.36-.32,2.58-1.64,4.6-3.93,6.07-1.09.7-2.2,1.18-3.31,1.45-1.28.31-2.68.54-4.18.69,7.66,1.23,11.12,4.78,10.38,10.54Zm-7.66-18.46c.48-4.02-1.46-6.29-5.81-6.78-1.44-.16-3.44-.41-3.69-.19-.52.46-.52,3.67-.69,5.29-.33,3.02-.49,4.52-.83,7.54.43.08,1.29.2,2.58.34,3.39.38,5.73-.42,7.05-2.4.76-1.15,1.23-2.41,1.39-3.79Zm-.95,18.26c.65-5.46-1.96-8.55-7.84-9.2-.75-.08-1.6-.15-2.56-.2-.55,5.06-.83,7.59-1.38,12.65-.15,1.37-.59,3.66-.33,4.03.17.24,1.79.39,3.15.54,2.58.29,4.67-.28,6.24-1.72,1.49-1.36,2.4-3.4,2.72-6.1Z"/>
        <path class="cls-2" d="m493.34,317.46c-.13.09-.19.14-.32.23-.13-.02-.47-.09-1.04-.2-2.48-.5-4.04-.8-4.66-.89-.93-.15-2.42-.33-4.47-.54,0-.45-.24-1.22-.7-2.33-2.03-4.92-3.05-7.38-5.14-12.29-.96-2.02-1.44-3.03-2.41-5.05-.31-.62-.77-1.25-1.4-1.9.18-.35.26-.53.44-.88.42.08.74.13.95.16,1.82.27,3.3.2,4.43-.21,1.02-.37,2.04-1.12,3.03-2.27.99-1.14,1.63-2.6,1.9-4.35.47-3.06-.4-5.31-2.61-6.73-1.05-.68-2.67-1.18-4.84-1.49-.94-.14-1.86-.2-2.75-.17-.44,1.75-.97,4.77-1.58,9.04-.81,5.69-1.22,8.54-2.03,14.23-.62,4.32-.9,7.15-.85,8.48.02.54.28.92.79,1.14.26.11,1.32.36,3.18.74.09.12.14.19.24.31-.11.73-.16,1.09-.27,1.82-.11.09-.17.14-.29.24-1.81-.38-4.62-.84-8.43-1.37-3.94-.55-6.76-.87-8.48-.98-.1-.11-.14-.17-.24-.28.1-.74.15-1.11.24-1.85.12-.09.19-.14.31-.24,1.89.14,2.97.19,3.26.16.55-.07.91-.37,1.07-.88.41-1.27.92-4.07,1.51-8.39.78-5.76,1.17-8.64,1.96-14.4.59-4.32.84-7.15.78-8.49-.03-.54-.3-.92-.83-1.14-.27-.11-1.37-.35-3.28-.71-.1-.12-.15-.19-.25-.31.1-.74.15-1.11.24-1.85.13-.08.19-.12.31-.21,1.84.35,4.75.8,8.72,1.35,2.31.32,4.18.56,5.63.72,2.87.3,5.02.57,6.43.78,3.27.49,5.63,1.14,7.07,1.94,1.94,1.08,3.11,2.59,3.52,4.51.2.94.2,2.02,0,3.23-.79,4.92-4.21,7.94-10.21,9.14.7,1.66,1.44,3.35,2.24,5.07,1.31,2.84,1.96,4.26,3.25,7.1,1.9,4.2,3.2,6.63,3.94,7.29.37.34.94.57,1.69.7.09.13.14.19.23.32-.11.69-.17,1.04-.29,1.73Z"/>
        <path class="cls-2" d="m542.24,306.03c-1.37,6.62-4.42,11.4-9.1,14.38-4.55,2.9-10.08,3.7-16.66,2.47-6.22-1.16-10.79-3.76-13.75-7.85-2.97-4.09-3.95-9.23-2.91-15.43,1.47-8.69,5.91-14.14,13.41-16.25,3.41-.96,7.43-1.01,12.02-.15,6.57,1.24,11.36,3.9,14.32,7.92,3.01,4.08,3.88,9.06,2.67,14.91Zm-8.82-.33c1.04-5.21.78-9.56-.79-13.05-1.57-3.49-4.48-5.65-8.71-6.44-5.58-1.05-9.72.7-12.39,5.2-1.37,2.3-2.33,4.99-2.87,8.06-.98,5.57-.71,10.16.81,13.76,1.56,3.72,4.48,5.97,8.76,6.78,5.2.98,9.17-.86,11.96-5.55,1.48-2.49,2.56-5.4,3.23-8.74Z"/>
      </g>
      <g>
        <path class="cls-1" d="m215.53,163.9v-2.66c1.21-2.79,3.33-3.83,6.35-3.7,4.1.17,8.21.04,12.32.04.53,0,1.05,0,1.55,0v-9.99c-4.68,0-9.28-.12-13.87.04-3.03.11-5.14-.92-6.35-3.7v-2.66c1.21-2.79,3.33-3.83,6.35-3.7,4.1.17,8.21.04,12.32.04h1.55v-9.99c-4.68,0-9.28-.12-13.87.04-3.03.11-5.14-.92-6.35-3.7v-2.66c1.21-2.79,3.33-3.83,6.35-3.7,4.1.17,8.21.04,12.32.04h1.55v-9.99c-4.68,0-9.28-.12-13.87.04-3.03.11-5.14-.92-6.35-3.7v-2.66c1.21-2.79,3.32-3.83,6.34-3.7,3.87.17,7.76.04,11.64.04.75,0,1.5,0,2.33,0,0-5.17-.02-10.1,0-15.02.02-2.82,2.12-4.92,4.94-4.94,3.33-.03,6.65,0,9.98,0,1.64,0,3.29,0,5.05,0,0-4.79.13-9.39-.04-13.97-.11-3.03.92-5.13,3.7-6.34h2.66c2.78,1.21,3.87,3.31,3.7,6.33-.16,2.81-.03,5.64-.03,8.46v5.41h9.99c0-4.7.12-9.29-.04-13.87-.11-3.02.93-5.12,3.7-6.33h2.66c2.78,1.21,3.87,3.31,3.7,6.33-.16,2.81-.03,5.64-.03,8.46,0,1.8,0,3.61,0,5.41h9.99c0-4.7.12-9.29-.04-13.87-.11-3.02.93-5.12,3.7-6.33h2.66c2.78,1.21,3.87,3.31,3.7,6.33-.16,2.81-.03,5.64-.03,8.46,0,1.8,0,3.61,0,5.41h9.99c0-4.7.12-9.29-.04-13.87-.11-3.02.93-5.12,3.7-6.33h2.66c2.78,1.21,3.87,3.31,3.7,6.33-.16,2.81-.03,5.64-.03,8.46,0,1.8,0,3.61,0,5.41h9.99c0-4.7.12-9.29-.04-13.87-.11-3.02.93-5.12,3.7-6.33h2.66c2.79,1.21,3.83,3.33,3.7,6.35-.17,4.1-.04,8.21-.04,12.32v1.64c3.86,0,7.47.13,11.07-.03,7.78-.34,9.27,1.22,8.93,8.86-.14,3.21-.03,6.43-.02,9.65,0,.48.06.95.1,1.5,5.24,0,10.34-.04,15.44.01,2.7.03,4.76,2.25,4.77,4.96,0,2.72-2.05,4.93-4.75,4.99-3.05.06-6.1.02-9.15.02-2.09,0-4.18,0-6.29,0v9.99c5.1,0,10.08-.01,15.07,0,2.97.01,5.11,2.1,5.13,4.95.01,2.86-2.12,4.99-5.05,5.03-1.89.02-3.77,0-5.66,0-3.15,0-6.29,0-9.5,0v9.99c5.08,0,10.07-.01,15.05,0,2.99.01,5.13,2.08,5.16,4.92.03,2.93-2.13,5.04-5.19,5.06-4.44.02-8.88,0-13.32,0-.58,0-1.16,0-1.71,0v9.99c5.07,0,10.05-.01,15.03,0,3.06,0,5.21,2.13,5.18,5.06-.03,2.84-2.17,4.9-5.16,4.92-4.44.02-8.88,0-13.32,0-.58,0-1.17,0-1.75,0v9.99h1.7c4.27,0,8.54,0,12.82,0,3.54,0,5.73,1.93,5.71,5.03-.02,3.02-2.21,4.95-5.63,4.95-4.33,0-8.66,0-12.98,0-.53,0-1.07.05-1.69.08,0,5.02.01,9.89,0,14.76-.01,3.03-2.09,5.11-5.11,5.13-3.83.02-7.66,0-11.48,0-1.09,0-2.18,0-3.37,0,0,5.2.01,10.18,0,15.16-.01,2.98-2.1,5.12-4.93,5.14-2.92.02-5.03-2.14-5.04-5.2-.02-4.44,0-8.88,0-13.32,0-.58,0-1.16,0-1.69h-9.99c0,5.08.01,10.06,0,15.04-.01,2.99-2.08,5.14-4.91,5.17-2.93.03-5.06-2.12-5.07-5.18-.02-4.44,0-8.88,0-13.32,0-.58,0-1.17,0-1.73h-9.99c0,.62,0,1.17,0,1.71,0,4.44.01,8.88,0,13.32-.01,3.06-2.13,5.22-5.05,5.2-2.84-.02-4.92-2.17-4.93-5.15-.02-4.44,0-8.88,0-13.32,0-.59,0-1.17,0-1.71h-9.99c0,5.13.02,10.12,0,15.11-.01,2.94-2.16,5.07-5.02,5.06-2.84-.01-4.94-2.16-4.95-5.12-.02-4.49,0-8.99,0-13.48,0-.53-.05-1.07-.07-1.58h-9.92c0,2.62,0,5.11,0,7.61,0,2.55.03,5.1,0,7.66-.04,2.82-2.21,4.92-4.99,4.92-2.78,0-4.95-2.11-4.98-4.93-.04-3.61,0-7.21,0-10.82,0-1.48,0-2.96,0-4.56-3.9,0-7.61-.14-11.31.03-7.42.34-9.08-1.33-8.67-8.61.07-1.27,0-2.55,0-3.83v-7.57c-4.78,0-9.37-.12-13.96.04-3.03.11-5.14-.92-6.35-3.7v-2.66c1.21-2.79,3.33-3.83,6.35-3.7,4.1.17,8.21.04,12.32.04.53,0,1.05,0,1.55,0v-9.99c-4.68,0-9.28-.12-13.87.04-3.03.11-5.14-.92-6.35-3.7Zm85.23,23.64c12.92,0,25.85,0,38.77,0,4.29,0,6.19-1.89,6.19-6.17,0-25.85,0-51.69,0-77.54,0-4.3-1.89-6.18-6.17-6.18-25.85,0-51.69,0-77.54,0-4.29,0-6.19,1.89-6.19,6.17,0,25.85,0,51.69,0,77.54,0,4.29,1.89,6.19,6.17,6.19,12.92,0,25.85,0,38.77,0Z"/>
        <path class="cls-1" d="m295.77,177.51h-29.83v-9.87c.49-.02,1.02-.07,1.55-.07,4.27,0,8.54.02,12.82-.01,3.16-.02,5.51-2.23,5.46-5.05-.05-2.79-2.34-4.9-5.42-4.92-4.77-.03-9.53,0-14.42,0v-49.84h9.86c0,.47,0,1,0,1.52,0,4.22,0,8.43,0,12.65.01,3.32,2.1,5.69,4.99,5.69,2.89,0,4.98-2.37,4.99-5.69.01-4.7,0-9.4,0-14.19h9.89c.03.46.09.94.09,1.41,0,6.33-.03,12.65.03,18.98.01,1.11-.33,1.66-1.32,2.14-5.27,2.57-10.51,5.2-15.75,7.84-2.02,1.02-3.15,3.08-2.89,5,.31,2.26,1.88,4.04,4.18,4.33,1.03.13,2.25-.09,3.19-.55,6.52-3.17,12.99-6.44,19.47-9.68,2.17-1.08,3.09-2.88,3.09-5.26-.02-7.44,0-14.87,0-22.31,0-.6,0-1.2,0-1.9h29.83v9.81c-.49.02-1.02.07-1.55.07-4.27,0-8.54-.02-12.82.01-3.15.02-5.51,2.23-5.46,5.05.05,2.78,2.34,4.91,5.42,4.93,4.77.03,9.53,0,14.42,0v49.84h-9.86c0-4.82,0-9.58,0-14.33,0-2.31-.91-4.12-3.06-5.09-3.29-1.47-6.85.96-6.92,4.74-.07,4.27-.02,8.54-.02,12.82,0,.6,0,1.19,0,1.88h-9.86c-.04-.39-.12-.81-.12-1.23,0-6.44.02-12.87-.03-19.31,0-.97.3-1.47,1.17-1.89,5.32-2.61,10.61-5.26,15.89-7.94,2.03-1.03,3.15-3.09,2.88-5.01-.32-2.27-1.88-4.03-4.18-4.33-.98-.13-2.14.06-3.03.5-6.62,3.22-13.19,6.53-19.76,9.83-2.11,1.06-2.95,2.87-2.94,5.17.02,7.44,0,14.87,0,22.31,0,.6,0,1.2,0,1.95Z"/>
      </g>
      <g>
        <path class="cls-1" d="m411.16,489.61c11.66,1.52,22.48-5.95,23.97-16.29,1.46-10.15-7.81-21.77-19.77-23.06-10.57-1.14-21.71,6.97-22.95,17.07-1.31,10.75,7.11,20.76,18.75,22.27Z"/>
        <path class="cls-1" d="m402.54,507.04c-1.42,10.28,6.07,20.2,16.79,22.23,11.49,2.18,22.32-4.08,25.01-14.45,2.43-9.39-3.07-19.19-12.89-22.87-.59-.22-1.54-.19-2.06.11-5.77,3.31-12.04,4.48-18.86,3.73-.86-.09-2.05.3-2.64.87-3,2.88-4.81,6.35-5.36,10.38Z"/>
        <path class="cls-1" d="m436.08,486.55c2.81,2.16,5.66,4.06,8.13,6.33,3.15,2.9,5.15,6.52,6.33,10.46.32,1.07.89,1.6,1.99,1.91,11.18,3.11,23.19-3.43,26.05-13.8,2.78-10.07-3.71-20.92-14.16-24.02-8.17-2.43-15.45-1.02-21.53,4.52-.44.4-.94.93-1,1.45-.56,5.04-2.64,9.48-5.81,13.16Z"/>
        <path class="cls-1" d="m386.55,463.29c.68-1.64,1.21-3.23,1.98-4.7,2.5-4.82,6.3-8.58,11.38-11.14,1.28-.65,1.6-1.34,1.31-2.66-1.93-8.75-9.94-15.29-19.83-16.09-9.06-.74-18.48,5.04-21.32,13.07-3.1,8.76.54,18.18,8.95,23.06.6.35,1.57.72,2.1.52,4.94-1.94,10.12-2.49,15.44-2.06Z"/>
        <path class="cls-1" d="m441.27,464.96c4.62-2.84,9.45-4.46,14.82-4.53,1.61-.02,3.23.22,4.84.18.71-.02,1.66-.28,2.04-.76,5.89-7.45,5.02-17.79-2.02-24.9-6.81-6.87-17.88-8.69-26.24-4.13-5.88,3.2-9.59,7.89-10.27,14.37-.05.5.3,1.35.72,1.54,8.26,3.81,13.56,9.82,16.12,18.23Z"/>
        <path class="cls-1" d="m385.72,469.82c-9.2-1.91-19.99,3.96-22.93,12.41-4.2,12.05,4.59,24.71,18.27,26.2,4.89.53,9.52-.3,13.66-2.76.59-.35,1.25-.96,1.39-1.55.95-3.94,2.71-7.49,5.53-10.56-11.68-7.82-14.41-11.89-15.91-23.74Z"/>
        <path class="cls-1" d="m476.03,506.48c-7.13,5.02-15.1,6.65-24.12,4.85-.5,7.17-3.42,13.19-8.81,18.03,3.49,8.1,10.86,12.77,19.96,12.73,9.5-.04,17.47-5.42,20.43-13.79,2.62-7.41-.54-16.8-7.46-21.83Z"/>
        <path class="cls-1" d="m363.93,469.2c-4.89-3.38-8.4-7.49-10.3-12.66-.38-1.02-.92-2.06-.96-3.1-.08-2.21-1.41-2.68-3.46-2.82-15.4-1.05-26.67,12.75-20.61,26.65,4.08,9.36,14.34,14.56,24.49,12.42.98-.21,1.76-.37,1.79-1.62.18-7.38,3.25-13.59,9.05-18.87Z"/>
        <path class="cls-1" d="m359.6,429.86c5.67-5.24,12.45-7.7,20.4-7.64.45,0,1.16-.51,1.28-.92,1.58-5.3,4.5-9.78,9.15-13.21,1.08-.8.62-1.51.19-2.33-7.38-14.22-26.1-15.12-35.72-4.62-7.92,8.64-5.64,22.68,4.7,28.71Z"/>
        <path class="cls-1" d="m388.19,423.72c10.73,3.72,17.44,10.6,19.9,20.8,3.26-.02,6.4-.04,9.63-.06.59-1.96,1.07-4.05,1.86-6.03,1.81-4.55,4.89-8.25,9.02-11.23.57-.41,1.09-1.35.99-1.98-1.35-8.49-10.01-15.76-19.3-16.32-10.55-.63-19.82,5.3-22.06,14.13-.04.17-.02.35-.04.69Z"/>
        <path class="cls-1" d="m420.28,404.86c8.38,3.96,13.4,10.11,15.7,18.42.74-.15,1.4-.29,2.06-.43,6.13-1.33,12.14-1.05,17.98,1.47,1.08.46,1.67.36,2.31-.62,8.06-12.17-1.67-29.08-17.31-29.94-8.54-.47-15.06,2.75-19.7,9.23-.38.53-.64,1.14-1.04,1.87Z"/>
        <path class="cls-1" d="m397.35,404.48c5.22-2.08,10.76-2.28,16.52-1.36,2.39-5.47,6.4-9.54,12.05-12.32-1.72-6.68-5.94-11.39-12.67-14.04-12.17-4.8-25.91,1.58-28.88,13.33-.12.47.14,1.36.53,1.58,5.4,3.05,9.47,7.16,12.09,12.48.05.1.18.17.37.34Z"/>
        <path class="cls-1" d="m361.57,389.5c2.87-.32,5.48-.55,8.06-.93.64-.09,1.4-.56,1.72-1.07,6.77-10.82,5.49-26.38-2.97-36.52-1.52-1.82-2.79-2.01-4.75-.6-6.42,4.61-10.57,10.63-12.61,17.92-.16.57-.15,1.38.18,1.85,4.33,6.13,7.93,12.58,10.36,19.35Z"/>
        <path class="cls-1" d="m343.43,416.84c-7.56.09-15.07,5.35-17.71,12.24-2.81,7.33-.76,15.92,5.01,20.63,6.23-4.34,13.42-5.74,20.97-4.94,1.17-3.3,2.28-6.42,3.47-9.76-6.54-4.35-10.52-10.47-11.74-18.18Z"/>
        <path class="cls-1" d="m352.65,394.04c.97-.66,1.93-1.32,3.28-2.25-2.3-4.41-4.48-8.89-6.97-13.22-1.89-3.29-4.14-6.41-6.32-9.55-1.55-2.23-2.8-2.37-5.1-.79-2.46,1.69-4.91,3.4-7.35,5.12-2.35,1.66-2.14,3.91.58,5.2,5.93,2.81,11.57,6.02,16.44,10.27,1.89,1.65,3.61,3.45,5.43,5.22Z"/>
      </g>
      <path class="cls-1" d="m158.42,555.52c.27-.57.41-1.37.84-1.66,1.45-.99,3-1.8,4.52-2.66.5-.28,1.04-.5,1.83-.87-4.44-.56-8.56-1.07-12.68-1.59,0-.3,0-.6,0-.9,4.13-1.47,8.37-2.03,12.9-1.56-.35-.68-.65-1.25-1.03-1.97,1.85-.69,2.77,1.07,4.53,1.66.31-8.96.62-17.79.91-26.16-2.88-.14-5.47-.28-8.06-.37-.26,0-.65.2-.79.44-1.78,3.08-3.52,6.17-5.37,9.45,1.53-.16,2.83-.29,4.13-.42.04.2.08.4.12.6-1.3,1.84-3.04,2.96-5.11,3.56-2.38.69-3.25,3.51-1.69,5.55.59.77,1.23,1.49,1.78,2.29.19.28.33.84.19,1.07-.14.25-.63.28-.97.35-.14.03-.32-.04-.47-.12-2.81-1.55-5.46-.76-7.99.79-2.57,1.57-5.08,3.26-7.62,4.9-.23.15-.44.35-.68.47-.13.07-.31.01-.66.01-.03-3.15,2.1-4.67,4.08-6.59-3.95-.43-7.63,1.29-11.38.31,3.52-3.49,8.13-3.46,12.51-4.88-.35-.36-.66-.61-.89-.94-.3-.43-.53-.92-.79-1.38.54-.1,1.11-.36,1.61-.26.84.17,1.61.7,2.45.85.44.08,1.19-.16,1.39-.52,3.44-6.32,6.82-12.67,10.34-19.25-4.91-5.28-9.81-10.42-14.57-15.72-6.35-7.07-12.43-14.41-17.75-22.48-3.25-4.93-5.27-10.21-5.42-16.32-.16-6.54-.32-13.07.88-19.55.83-4.47,2.55-8.47,4.68-12.32.83-1.51,1.67-3.01,2.28-4.11-1.52-1.94-3.22-3.46-4.07-5.42-.84-1.94-.89-4.32-1.17-6.53-.23-1.86-.29-3.74-.47-6.1-.89,1.06-1.57,1.88-2.46,2.95-.26-.65-.69-1.19-.65-1.68.18-1.98,1.11-4.16.6-5.85-.54-1.8-1.69-3.4-1.74-5.49-.06-2.47-.32-4.94-.46-7.41-.03-.46.05-.94.11-1.41.35-2.31.95-2.59,2.71-1.27.21.16.46.25,1,.54.1-1.65.14-3.08.29-4.5.05-.47.31-1.22.58-1.28.43-.09,1.07.14,1.41.48.82.83,1.51,1.81,2.43,2.95.61-1.8,1.13-3.37,1.66-4.94.19-.55.33-1.15.64-1.61.26-.38.74-.83,1.1-.8.35.03.83.55.96.97.33,1.04.51,2.14.83,3.62.78-1.67,1.38-3.08,2.08-4.43.47-.92.99-1.86,1.67-2.58.37-.39,1.25-.64,1.68-.42.42.22.77,1.09.78,1.69,0,.91-.3,1.82-.55,3.12,1.34-1.37,2.43-2.54,3.57-3.64.64-.62,1.32-1.24,2.07-1.66.39-.22,1.16-.2,1.43.09.27.29.32,1.15.13,1.56-.55,1.17-1.28,2.24-2.1,3.63,1.55-.65,2.81-1.35,4.14-1.68.96-.23,2.02.04,3.04.08-.15,1.15.08,2.66-.51,3.4-1.82,2.29-3.92,4.31-5.95,6.39-.5.51-1.15.85-1.99,1.47,1.09.67,1.98,1.26,2.9,1.78,5.17,2.94,10.01,6.47,13.47,11.64,2.66,3.96,4.89,8.31,6.98,12.67,2.42,5.05,4.52,10.29,6.7,15.47,2.45,5.82,6.41,9.74,11.92,11.97,4.41,1.79,8.85,3.28,13.54,3.88,1.08.14,1.67-.19,2.18-1.22,2.77-5.59,5.62-11.14,8.39-16.73,4.72-9.5,11.45-16.9,19.74-22.68,7.42-5.17,15.51-6.95,24.13-5.31,6.14,1.17,12.24,2.59,18.29,4.21,2.41.65,4.65,2.11,6.95,3.25.48.24.92.62,1.33,1,1.5,1.37,2.01,3.33,1.28,5.05-.77,1.81-2.19,1.59-4.03,1.06,1.19,1.57,2.16,2.75,3.03,4.02.71,1.03,1.38,2.12,1.9,3.27,1.15,2.55-.16,4.8-2.76,4.47-1.9-.24-3.8-.84-5.59-1.59-5.17-2.16-10.26-4.56-15.44-6.71-2.45-1.02-5-1.06-7.77.21,2.33,1.2,2.47,3.44,3.08,5.59.84,2.95,1.12,5.77.57,8.81-.24,1.32.31,2.79.29,4.19-.02,1.37-.01,2.89-.55,4.06-1.5,3.25-3.3,6.34-4.91,9.53-.3.59-.55,1.5-.34,2.04.81,2.08.22,3.65-1.17,5.06-.32.32-.62.68-.99.91-3.23,2.05-2.51,2.39-1.69,5.59.47,1.83.8,3.25-1.23,4.18-.44.2-.68,1.27-.78,1.97-.31,2.24-1.25,3.72-3.62,4.17-3.52.66-6.94,2-10.39,3.12-.42.13-.79.6-1.07,1-.43.6-.84,1.24-1.15,1.92-2.11,4.73-5.7,7.07-10.35,7.59-4.33.48-8.68.82-13.02,1.22-.3.03-.6,0-.9,0-.11.17-.23.34-.34.51.65.58,1.39,1.07,1.94,1.74,2.75,3.31,5.53,6.59,8.12,10.05,1.12,1.49,2.01,3.5.83,5.38-1.22,1.94-3.23,1.54-4.9.91-5.28-2-10.72-1.72-16.15-1.68-.38,0-.78,0-1.12-.12-3.04-1.18-5.07.29-6.68,2.97-1.01,1.67-2.1,3.28-3.12,4.95-.23.38-.45.84-.47,1.28-.38,7.29-.73,14.59-1.11,22.27,1.85-.93,3.4-1.7,4.95-2.48.17.19.34.39.52.58-.64,1.05-1.23,2.14-1.93,3.14-.42.59-.99,1.09-1.56,1.53-1.95,1.49-2.16,3.43-.57,5.45.91,1.16,1.87,2.3,2.68,3.54.29.45.22,1.18.32,1.78-.51.03-1.03.15-1.52.06-.52-.1-1.02-.37-1.5-.62-1.23-.64-2.26-.55-3.61.08-1.94.9-4.18.98-6.25,1.59-2.48.73-4.9,1.65-7.35,2.48h-.97Z"/>
    </g>
  </g>
</svg>